<svg width="1200" height="216" viewBox="0 0 1200 216" fill="none" xmlns="http://www.w3.org/2000/svg">
<g filter="url(#filter0_dd_2737_724)">
<g clip-path="url(#clip0_2737_724)">
<path d="M893.886 42.6457C888.14 49.3221 889.036 55.5254 896.258 59.8361C897.417 60.5195 897.523 60.9927 897.101 62.2018C896.356 63.942 896.118 65.857 896.417 67.7258C896.715 69.5946 897.537 71.3413 898.788 72.7645C900.039 74.1876 901.667 75.2293 903.486 75.7695C905.304 76.3096 907.239 76.3263 909.066 75.8174C910.173 75.8174 910.7 75.8174 910.806 77.0265C910.887 79.1623 911.661 81.2142 913.011 82.8744C914.36 84.5346 916.213 85.7137 918.292 86.2349C920.37 86.7561 922.562 86.5912 924.538 85.7651C926.515 84.9389 928.169 83.496 929.254 81.6527C934.947 94.9004 931.995 121.238 911.702 138.586C901.688 146.899 889.107 151.516 876.078 151.66C863.05 151.804 850.37 147.465 840.174 139.375C829.469 130.834 822.271 118.679 819.94 105.206C817.609 91.7323 820.307 77.8742 827.523 66.2497C834.143 55.2701 844.374 46.9177 856.473 42.6141C868.573 38.3105 881.793 38.3217 893.886 42.6457ZM892.99 95.5312C893 92.1046 891.992 88.7517 890.094 85.8954C888.196 83.0392 885.493 80.8075 882.324 79.4819C879.156 78.1563 875.665 77.7962 872.292 78.4469C868.919 79.0977 865.814 80.7302 863.37 83.1385C860.926 85.5468 859.252 88.623 858.559 91.9792C857.865 95.3353 858.184 98.8211 859.475 101.997C860.766 105.172 862.971 107.896 865.811 109.823C868.652 111.75 872.001 112.796 875.437 112.827C880.048 112.8 884.465 110.976 887.745 107.744C891.025 104.512 892.907 100.129 892.99 95.5312Z" fill="#FF4000" style="fill:#FF4000;fill:color(display-p3 1.0000 0.2510 0.0000);fill-opacity:1;"/>
<path d="M35.289 149.678C31.1172 150.001 26.9415 149.106 23.271 147.102C21.0015 145.549 19.4314 143.172 18.8961 140.479C18.3585 137.776 18.0587 135.032 18 132.278L18 34.6025C18.0056 31.87 18.2525 29.1433 18.7379 26.4541C19.3375 23.7742 20.9645 21.4346 23.271 19.9354C27.0032 17.9441 31.2257 17.0508 35.4471 17.3595H73.2403C78.5643 17.5327 83.821 18.599 88.7898 20.5137C94.5436 22.573 99.8944 25.6148 104.603 29.5032C109.705 33.6459 113.888 38.8018 116.884 44.6433C120.198 51.3555 121.826 58.7705 121.628 66.2496C121.811 73.643 120.182 80.9692 116.884 87.5931C113.909 93.4337 109.723 98.5766 104.603 102.681C99.8674 106.504 94.5221 109.507 88.7898 111.565C83.7231 113.429 78.3766 114.424 72.9768 114.509H52.736V132.646C52.7419 135.381 52.477 138.11 51.9454 140.794C51.6956 142.113 51.1847 143.368 50.4425 144.488C49.7004 145.607 48.7419 146.567 47.6231 147.313C43.831 149.284 39.5437 150.106 35.289 149.678ZM52.736 79.655H73.2403C75.2033 79.5734 77.1338 79.1277 78.933 78.3408C81.1772 77.4527 83.1425 75.9826 84.6257 74.0826C86.3739 71.6774 87.2309 68.7417 87.0504 65.7765C87.0754 63.339 86.4489 60.9389 85.2353 58.8231C84.0217 56.7072 82.2648 54.952 80.1454 53.738C77.9557 52.5821 75.5064 52.003 73.0295 52.0557H52.736V79.655Z" fill="#171C17" style="fill:#171C17;fill:color(display-p3 0.0900 0.1100 0.0900);fill-opacity:1;"/>
<path d="M173.917 151.571C167.859 151.532 161.865 150.336 156.259 148.049C150.242 145.696 144.692 142.296 139.866 138.008C134.827 133.633 130.752 128.263 127.901 122.237C124.86 115.851 123.328 108.856 123.42 101.787C123.363 95.0771 124.728 88.4308 127.426 82.2836C132.673 70.289 142.25 60.7002 154.256 55.4203C160.335 52.7566 166.908 51.3955 173.548 51.425C182.472 51.3246 191.256 53.6509 198.954 58.154C206.461 62.5576 212.733 68.7772 217.192 76.2381C221.748 83.9016 224.101 92.6682 223.992 101.577C224.09 108.837 222.54 116.026 219.459 122.605C216.563 128.604 212.495 133.966 207.493 138.376C202.719 142.587 197.218 145.9 191.259 148.154C185.735 150.336 179.858 151.494 173.917 151.571ZM173.548 116.927C175.795 116.853 178.009 116.372 180.084 115.508C182.679 114.52 184.956 112.849 186.673 110.671C188.638 107.999 189.607 104.727 189.414 101.419C189.512 98.5773 188.838 95.7619 187.463 93.2708C186.111 91.0284 184.158 89.2076 181.823 88.0138C179.247 86.7065 176.385 86.0563 173.495 86.1212C170.831 86.0967 168.21 86.7867 165.905 88.1189C163.737 89.4071 161.926 91.2139 160.634 93.3759C159.2 95.8115 158.47 98.5954 158.525 101.419C158.368 104.658 159.295 107.858 161.161 110.514C162.787 112.65 164.951 114.319 167.434 115.35C169.363 116.23 171.433 116.763 173.548 116.927Z" fill="#171C17" style="fill:#171C17;fill:color(display-p3 0.0900 0.1100 0.0900);fill-opacity:1;"/>
<path d="M279.021 150.782C273.399 150.721 267.832 149.671 262.575 147.681C256.702 145.517 251.233 142.39 246.393 138.428C240.932 133.991 236.555 128.371 233.596 121.995C230.637 115.618 229.173 108.654 229.315 101.629C229.121 94.6075 230.551 87.6354 233.494 81.2537C236.438 74.872 240.815 69.2523 246.288 64.8303C251.109 60.8824 256.561 57.7723 262.417 55.6305C267.611 53.6766 273.102 52.6275 278.652 52.5289C282.867 52.4641 287.07 52.977 291.144 54.0534C294.167 54.834 297.099 55.9263 299.894 57.3128C302.161 58.5219 303.795 59.4156 304.796 60.0464C307.322 61.5825 309.703 63.3419 311.912 65.3034C313.005 66.2768 313.87 67.4788 314.444 68.8237C315.018 70.1686 315.287 71.6232 315.233 73.0838C315.246 74.8796 314.924 76.6621 314.284 78.3408C313.481 80.3645 312.474 82.3019 311.28 84.1235C306.694 91.0628 302.161 94.6375 297.628 94.6375C295.816 94.6629 294.019 94.3045 292.357 93.5861C290.894 92.9354 289.5 92.1431 288.193 91.2205C286.89 90.3202 285.515 89.5289 284.081 88.8548C282.421 88.1286 280.623 87.7699 278.81 87.8034C276.327 87.7819 273.885 88.4362 271.747 89.6959C269.575 90.9788 267.762 92.7868 266.476 94.953C265.199 97.0985 264.542 99.5549 264.578 102.05C264.541 104.578 265.197 107.069 266.476 109.252C267.734 111.44 269.553 113.255 271.747 114.509C273.757 115.752 276.076 116.407 278.441 116.402C279.952 116.441 281.461 116.264 282.922 115.876C283.891 115.589 284.814 115.164 285.663 114.614C286.007 114.334 286.4 114.12 286.822 113.983C288.562 112.932 290.248 111.986 291.83 111.145C293.299 110.275 294.971 109.804 296.679 109.778C299.085 109.863 301.405 110.689 303.32 112.143C306.197 114.336 308.752 116.919 310.911 119.819C313.229 122.412 314.78 125.597 315.391 129.018C315.51 131.586 314.727 134.114 313.177 136.168C310.945 139.044 308.17 141.455 305.007 143.265C304.638 143.528 303.32 144.264 301.159 145.42C298.322 146.862 295.357 148.041 292.304 148.942C287.998 150.233 283.517 150.854 279.021 150.782Z" fill="#171C17" style="fill:#171C17;fill:color(display-p3 0.0900 0.1100 0.0900);fill-opacity:1;"/>
<path d="M407.212 118.61C411.08 121.501 413.745 125.712 414.697 130.438C414.583 132.893 413.957 135.297 412.859 137.497C411.761 139.696 410.215 141.643 408.319 143.213C405.84 146.049 402.856 148.401 399.517 150.152C398.365 150.67 397.116 150.938 395.853 150.938C394.59 150.938 393.341 150.67 392.19 150.152C389.076 148.564 386.201 146.546 383.651 144.159L360.3 122.395V132.909C360.297 135.642 360.05 138.369 359.562 141.057C359.039 143.644 357.527 145.926 355.345 147.418C351.579 149.357 347.34 150.195 343.117 149.837C338.899 150.179 334.672 149.303 330.941 147.313C329.834 146.561 328.887 145.597 328.154 144.479C327.421 143.36 326.917 142.108 326.671 140.795C326.247 138.099 326.035 135.375 326.039 132.646V27.506C326.006 24.7371 326.253 21.972 326.776 19.2525C327.006 17.9059 327.508 16.6198 328.251 15.4722C328.994 14.3246 329.963 13.3394 331.099 12.5761C334.79 10.5254 339.013 9.62794 343.222 10.0002C347.431 9.62794 351.654 10.5254 355.345 12.5761C357.553 14.124 359.081 16.4571 359.615 19.0948C360.107 21.8362 360.354 24.6158 360.353 27.4009V79.6556L376.482 63.8845C378.937 61.3958 381.832 59.3817 385.021 57.9441C387.557 56.9211 390.392 56.9211 392.928 57.9441C396.112 59.3277 398.927 61.4339 401.151 64.0948C404.957 67.3327 407.419 71.8678 408.056 76.8168C407.144 81.439 404.623 85.5912 400.94 88.5399L385.759 101.998L407.212 118.61Z" fill="#171C17" style="fill:#171C17;fill:color(display-p3 0.0900 0.1100 0.0900);fill-opacity:1;"/>
<path d="M467.987 151.939C459.697 152.188 451.454 150.608 443.846 147.313C437.729 144.498 432.325 140.347 428.033 135.169C424.082 130.39 421.061 124.916 419.125 119.03C417.293 113.589 416.333 107.894 416.279 102.155C416.087 92.9578 418.381 83.8786 422.92 75.8701C427.295 68.3579 433.66 62.1921 441.316 58.0488C449.575 53.6907 458.803 51.4846 468.146 51.6352C475.051 51.4522 481.916 52.7427 488.281 55.4203C493.432 57.6524 498.049 60.9494 501.827 65.0932C505.157 68.7256 507.768 72.9528 509.523 77.5523C511.068 81.4753 511.907 85.6397 512 89.8537C512.423 95.8096 510.536 101.7 506.729 106.308C504.992 108.172 502.875 109.643 500.52 110.622C498.165 111.601 495.627 112.066 493.077 111.986H452.596C453.07 114.014 454.155 115.848 455.706 117.243C457.432 118.81 459.484 119.977 461.715 120.66C464.207 121.516 466.827 121.943 469.463 121.921C471.949 121.942 474.433 121.784 476.895 121.448C478.785 121.26 480.654 120.909 482.483 120.397C484.064 119.924 485.54 119.398 486.858 118.872L490.442 117.663C491.468 117.356 492.533 117.197 493.605 117.19C495.88 117.188 498.083 117.989 499.824 119.451C502.053 121.325 503.851 123.656 505.095 126.285C505.88 127.761 506.515 129.31 506.993 130.911C507.336 132.233 507.514 133.593 507.52 134.959C507.545 136.788 507.138 138.598 506.332 140.242C505.526 141.885 504.344 143.317 502.882 144.421C498.919 147.342 494.34 149.32 489.493 150.204C482.41 151.567 475.198 152.149 467.987 151.939ZM452.596 94.1119H473.68C474.375 94.1865 475.077 94.1227 475.747 93.9241C476.416 93.7256 477.04 93.3963 477.581 92.9553C478.015 92.5157 478.349 91.9871 478.558 91.4061C478.767 90.8252 478.848 90.2058 478.793 89.5908C478.84 88.064 478.335 86.5712 477.37 85.3852C476.334 84.2185 475.006 83.3475 473.522 82.8619C471.614 82.2585 469.619 81.9743 467.618 82.0208C464.858 81.9471 462.122 82.5614 459.659 83.8081C457.544 84.8422 455.73 86.3985 454.388 88.3292C453.289 90.065 452.671 92.0602 452.596 94.1119Z" fill="#171C17" style="fill:#171C17;fill:color(display-p3 0.0900 0.1100 0.0900);fill-opacity:1;"/>
<path d="M591.224 58.9949C590.482 57.8848 589.527 56.9322 588.415 56.1923C587.302 55.4524 586.053 54.9398 584.74 54.6842C582.103 54.1547 579.419 53.8905 576.728 53.8956L566.713 54.2636V39.1234C566.699 36.4037 566.417 33.6921 565.87 31.0276C565.62 29.6955 565.104 28.4271 564.353 27.2981C563.601 26.1691 562.629 25.2027 561.495 24.4564C557.859 22.4649 553.716 21.5872 549.583 21.933C545.384 21.607 541.175 22.4246 537.406 24.2986C536.309 24.963 535.356 25.8405 534.604 26.8789C533.853 27.9174 533.318 29.0958 533.031 30.3442C532.531 32.996 532.284 35.6891 532.294 38.3874V54.8419H528.288C526.555 54.7277 524.82 55.0422 523.239 55.7576C521.657 56.473 520.277 57.5669 519.221 58.9423C516.916 62.5752 515.844 66.8513 516.164 71.1386C515.876 75.4484 516.769 79.7551 518.747 83.5977C519.776 84.9695 521.125 86.0697 522.678 86.8027C524.23 87.5356 525.939 87.8792 527.655 87.8033H532.399V111.828C532.294 117.525 533.094 123.203 534.771 128.65C536.134 133.193 538.636 137.314 542.039 140.625C545.442 143.936 549.634 146.328 554.221 147.576C559.892 149.189 565.772 149.951 571.668 149.836C574.334 149.837 576.995 149.626 579.627 149.205C580.962 148.97 582.237 148.472 583.377 147.741C584.517 147.01 585.5 146.06 586.269 144.947C588.372 141.262 589.309 137.029 588.957 132.803C589.256 129.074 588.489 125.337 586.743 122.026C586.066 120.983 585.176 120.093 584.132 119.413C583.088 118.734 581.912 118.281 580.682 118.084C577.781 117.529 574.832 117.265 571.879 117.295C571.037 117.33 570.196 117.205 569.402 116.927C568.791 116.697 568.26 116.296 567.873 115.771C567.444 115.119 567.156 114.385 567.03 113.615C566.906 112.444 566.906 111.264 567.03 110.093V88.1187H576.886C579.655 88.1339 582.416 87.8161 585.109 87.1725C587.761 86.5274 590.075 84.9143 591.593 82.6515C593.552 79.1261 594.432 75.105 594.123 71.086C594.32 66.8636 593.315 62.6716 591.224 58.9949Z" fill="#171C17" style="fill:#171C17;fill:color(display-p3 0.0900 0.1100 0.0900);fill-opacity:1;"/>
<path d="M668.918 151.939C663.341 151.851 657.797 151.056 652.42 149.573C646.015 147.866 639.851 145.358 634.077 142.109C627.809 138.578 622.121 134.11 617.21 128.861C611.932 123.171 607.751 116.559 604.875 109.357C601.624 100.982 600.048 92.0519 600.237 83.0723C600.001 74.2598 601.579 65.4927 604.875 57.313C607.747 50.3068 611.893 43.8905 617.104 38.3877C621.99 33.3047 627.668 29.044 633.919 25.7709C639.757 22.5764 645.972 20.1216 652.42 18.4637C657.991 16.9671 663.729 16.1724 669.498 16.098C675.279 16.0056 681.04 16.8035 686.576 18.4637C690.736 19.7118 694.761 21.367 698.594 23.4053C701.704 25.0875 703.865 26.1915 704.392 26.7172C706.891 28.2921 709.27 30.0492 711.508 31.9742C712.61 32.9637 713.479 34.1836 714.053 35.5467C714.627 36.9098 714.892 38.3825 714.829 39.8597C714.842 41.6655 714.483 43.4548 713.775 45.1167C712.963 46.9922 711.919 48.7585 710.665 50.3737C708.712 53.3199 706.312 55.9448 703.549 58.1541C701.697 59.6635 699.403 60.5307 697.013 60.6249C695.361 60.6292 693.733 60.2323 692.269 59.4683C690.457 58.4918 688.698 57.4215 686.998 56.2616C685.916 55.4796 684.789 54.7599 683.625 54.1062C681.725 53.1971 679.726 52.5092 677.668 52.056C672.319 50.7699 666.751 50.6828 661.365 51.8009C655.978 52.919 650.907 55.2145 646.517 58.5221C642.982 61.2287 640.131 64.7209 638.188 68.7207C635.922 73.4771 634.82 78.7021 634.973 83.966C634.811 89.2761 635.951 94.5453 638.294 99.3165C640.323 103.261 643.203 106.708 646.727 109.41C650.007 111.931 653.698 113.869 657.638 115.14C661.041 116.265 664.596 116.868 668.18 116.927C670.981 116.987 673.777 116.704 676.509 116.086C678.654 115.555 680.726 114.76 682.676 113.721C684.521 112.722 686.207 111.723 687.947 110.724C689.381 109.679 690.917 108.78 692.533 108.043C694.068 107.329 695.74 106.952 697.435 106.939C699.84 107.018 702.139 107.95 703.918 109.568C706.581 111.929 708.873 114.676 710.718 117.716C711.992 119.571 713.053 121.564 713.88 123.656C714.551 125.33 714.909 127.112 714.934 128.913C714.991 130.344 714.722 131.768 714.146 133.079C713.571 134.39 712.705 135.554 711.614 136.484C709.394 138.432 707.013 140.19 704.498 141.741C703.602 142.214 701.704 143.37 698.805 145.158C695.069 147.23 691.108 148.871 686.998 150.047C681.101 151.582 675.006 152.22 668.918 151.939Z" fill="#3A725A" style="fill:#3A725A;fill:color(display-p3 0.2275 0.4471 0.3529);fill-opacity:1;"/>
<path d="M738.654 149.836C734.453 150.186 730.241 149.31 726.531 147.313C725.407 146.578 724.448 145.62 723.714 144.498C722.979 143.376 722.484 142.115 722.261 140.794C721.793 138.103 721.564 135.377 721.576 132.646V27.5055C721.563 24.7523 721.828 22.0047 722.367 19.3046C722.614 17.9995 723.13 16.76 723.883 15.6649C724.636 14.5697 725.61 13.643 726.742 12.9436C730.467 10.993 734.671 10.1362 738.865 10.4728C743.056 10.1112 747.26 11.0083 750.936 13.0487C753.137 14.5459 754.653 16.8521 755.153 19.4623C755.685 22.1457 755.95 24.8751 755.943 27.6106V62.044C758.3 60.0059 760.882 58.2421 763.639 56.787C767.099 54.9192 770.985 53.9774 774.919 54.0534C782.668 53.943 790.271 56.1593 796.741 60.4144C803.261 64.6999 808.548 70.6068 812.08 77.5522C815.989 85.0816 817.946 93.4674 817.772 101.945V132.961C817.798 135.66 817.551 138.355 817.034 141.004C816.488 143.623 814.961 145.935 812.765 147.47C809.023 149.485 804.772 150.362 800.536 149.994C796.366 150.317 792.187 149.48 788.465 147.576C787.323 146.858 786.34 145.913 785.578 144.801C784.817 143.689 784.292 142.432 784.038 141.109C783.494 138.304 783.229 135.451 783.247 132.593V101.577C783.314 99.1289 782.809 96.6991 781.771 94.4798C780.759 92.5714 779.247 90.9726 777.396 89.8536C775.302 88.6966 772.937 88.116 770.544 88.1714C767.113 88.1632 763.776 89.2911 761.056 91.3782C758.395 93.0424 756.501 95.6875 755.785 98.738V132.803C755.791 135.539 755.526 138.268 754.995 140.952C754.762 142.256 754.269 143.501 753.545 144.612C752.82 145.723 751.879 146.677 750.778 147.418C747.04 149.331 742.842 150.169 738.654 149.836Z" fill="#3A725A" style="fill:#3A725A;fill:color(display-p3 0.2275 0.4471 0.3529);fill-opacity:1;"/>
<path d="M951.34 149.837C947.139 150.178 942.93 149.302 939.216 147.313C938.093 146.579 937.134 145.62 936.399 144.499C935.664 143.377 935.17 142.116 934.947 140.795C934.505 138.1 934.276 135.376 934.262 132.646V70.7712C934.284 68.0145 934.584 65.267 935.158 62.5702C935.416 61.2695 935.938 60.0348 936.69 58.9413C937.442 57.8478 938.409 56.9182 939.533 56.2092C943.336 54.2676 947.61 53.4298 951.867 53.791C956.247 53.5003 960.592 54.7463 964.148 57.3132C965.536 58.6705 966.605 60.3169 967.279 62.1346C967.953 63.9523 968.216 65.8963 968.049 67.8272L964.834 66.881C966.5 64.5153 968.369 62.2989 970.421 60.2571C972.459 58.3285 974.79 56.7318 977.326 55.5258C980.169 54.164 983.291 53.4801 986.445 53.5282C990.103 53.4994 993.744 54.0131 997.25 55.0527C1000.51 56.0391 1003.56 57.6065 1006.26 59.6789C1009.05 61.8173 1011.46 64.4126 1013.38 67.3541C1015.14 65.331 1017.04 63.4338 1019.07 61.6765C1021.68 59.3922 1024.58 57.4812 1027.72 55.999C1031.24 54.3209 1035.1 53.4753 1039 53.5282C1045.8 53.3223 1052.5 55.3135 1058.08 59.2057C1063.61 63.392 1067.77 69.1174 1070.04 75.6602C1072.95 84.1117 1074.33 93.0126 1074.1 101.945V132.804C1074.1 135.536 1073.85 138.263 1073.36 140.952C1072.8 143.607 1071.24 145.942 1068.99 147.471C1065.2 149.468 1060.92 150.344 1056.65 149.994C1052.42 150.361 1048.18 149.445 1044.48 147.366C1042.25 145.793 1040.72 143.418 1040.21 140.742C1039.78 138.047 1039.57 135.322 1039.58 132.594V101.577C1039.64 99.048 1039.28 96.5257 1038.52 94.1123C1037.98 92.3612 1036.92 90.8189 1035.47 89.6964C1034.02 88.6241 1032.25 88.0852 1030.46 88.1719C1028.61 88.0656 1026.77 88.524 1025.19 89.4861C1023.77 90.5298 1022.76 92.0366 1022.34 93.7443C1021.69 96.3741 1021.41 99.0806 1021.5 101.788V132.646C1021.5 135.381 1021.24 138.111 1020.71 140.795C1020.45 142.111 1019.94 143.365 1019.2 144.483C1018.45 145.602 1017.5 146.563 1016.38 147.313C1012.6 149.31 1008.32 150.186 1004.05 149.837C999.819 150.204 995.575 149.287 991.874 147.208C989.644 145.635 988.114 143.26 987.604 140.584C987.178 137.889 986.967 135.164 986.972 132.436V101.577C987.026 99.0213 986.707 96.4711 986.023 94.0071C985.55 92.2528 984.513 90.7017 983.071 89.5913C981.511 88.5695 979.664 88.0722 977.8 88.1719C976.773 88.094 975.74 88.2212 974.763 88.5462C973.785 88.8712 972.883 89.3873 972.108 90.0644C970.803 91.4194 969.908 93.1139 969.525 94.9534C969.091 97.1344 968.879 99.3537 968.892 101.577V132.804C968.898 135.539 968.633 138.269 968.102 140.952C967.859 142.273 967.346 143.529 966.593 144.642C965.84 145.755 964.864 146.7 963.727 147.418C959.908 149.37 955.615 150.208 951.34 149.837Z" fill="#3A725A" style="fill:#3A725A;fill:color(display-p3 0.2275 0.4471 0.3529);fill-opacity:1;"/>
<path d="M1178.36 83.5984C1176.01 77.9726 1172.67 72.81 1168.51 68.3531C1164.46 64.043 1159.67 60.4831 1154.38 57.8391C1149.37 55.2323 1143.8 53.8622 1138.15 53.8438C1131.37 53.5543 1124.7 55.6578 1119.33 59.7842C1118.03 57.8679 1116.2 56.3702 1114.06 55.4734C1110.54 54.1677 1106.79 53.5605 1103.04 53.686C1098.92 53.3507 1094.8 54.2281 1091.18 56.2094C1090.1 56.9433 1089.18 57.8832 1088.46 58.9749C1087.75 60.0666 1087.26 61.2886 1087.02 62.5704C1086.59 65.1944 1086.37 67.8496 1086.38 70.5085V173.336C1086.37 175.994 1086.59 178.65 1087.02 181.274C1087.25 182.554 1087.76 183.772 1088.49 184.848C1089.23 185.925 1090.18 186.838 1091.29 187.529C1094.96 189.462 1099.11 190.318 1103.25 190C1107.44 190.337 1111.65 189.48 1115.37 187.529C1117.65 186.082 1119.26 183.796 1119.85 181.169C1120.44 178.529 1120.6 175.815 1120.33 173.125V142.582C1120.96 143.003 1121.54 143.423 1122.23 143.791C1127.19 146.418 1132.74 147.722 1138.36 147.576C1144.01 147.577 1149.61 146.357 1154.75 144.001C1160.02 141.586 1164.79 138.217 1168.82 134.066C1172.97 129.79 1176.27 124.78 1178.57 119.294C1180.97 113.685 1182.21 107.649 1182.21 101.551C1182.21 95.4529 1180.97 89.4177 1178.57 83.8087L1178.36 83.5984ZM1145.52 108.306C1144.32 110.449 1142.6 112.257 1140.52 113.563C1138.44 114.823 1136.05 115.478 1133.61 115.456C1131.26 115.478 1128.95 114.82 1126.97 113.563C1124.91 112.24 1123.21 110.435 1122.02 108.306C1120.77 106.283 1120.11 103.953 1120.12 101.577C1120.08 99.1789 1120.7 96.8155 1121.91 94.7433C1123.13 92.7292 1124.83 91.0492 1126.87 89.8543C1128.94 88.5895 1131.34 87.9336 1133.77 87.9617C1136.21 87.9298 1138.61 88.5468 1140.73 89.7491C1142.79 90.9557 1144.5 92.6857 1145.67 94.7633C1146.85 96.8409 1147.45 99.1919 1147.42 101.577C1147.47 104.024 1146.81 106.433 1145.52 108.517V108.306Z" fill="#3A725A" style="fill:#3A725A;fill:color(display-p3 0.2275 0.4471 0.3529);fill-opacity:1;"/>
</g>
</g>
<defs>
<filter id="filter0_dd_2737_724" x="0" y="0" width="1200" height="216" filterUnits="userSpaceOnUse" color-interpolation-filters="sRGB">
<feFlood flood-opacity="0" result="BackgroundImageFix"/>
<feColorMatrix in="SourceAlpha" type="matrix" values="0 0 0 0 0 0 0 0 0 0 0 0 0 0 0 0 0 0 127 0" result="hardAlpha"/>
<feOffset dy="4"/>
<feGaussianBlur stdDeviation="2"/>
<feColorMatrix type="matrix" values="0 0 0 0 0 0 0 0 0 0 0 0 0 0 0 0 0 0 0.3 0"/>
<feBlend mode="normal" in2="BackgroundImageFix" result="effect1_dropShadow_2737_724"/>
<feColorMatrix in="SourceAlpha" type="matrix" values="0 0 0 0 0 0 0 0 0 0 0 0 0 0 0 0 0 0 127 0" result="hardAlpha"/>
<feMorphology radius="6" operator="dilate" in="SourceAlpha" result="effect2_dropShadow_2737_724"/>
<feOffset dy="8"/>
<feGaussianBlur stdDeviation="6"/>
<feColorMatrix type="matrix" values="0 0 0 0 0 0 0 0 0 0 0 0 0 0 0 0 0 0 0.15 0"/>
<feBlend mode="normal" in2="effect1_dropShadow_2737_724" result="effect2_dropShadow_2737_724"/>
<feBlend mode="normal" in="SourceGraphic" in2="effect2_dropShadow_2737_724" result="shape"/>
</filter>
<clipPath id="clip0_2737_724">
<rect width="1164" height="180" fill="white" style="fill:white;fill-opacity:1;" transform="translate(18 10)"/>
</clipPath>
</defs>
</svg>
