<svg xmlns="http://www.w3.org/2000/svg" viewBox="0 0 1047.57 225.88"><defs><style>.cls-1{fill:#53c87d;}</style></defs><g id="Layer_2" data-name="Layer 2"><g id="Layer_1-2" data-name="Layer 1"><path d="M225,201.47V75.14h27.57v6.73A40.46,40.46,0,0,1,277,73.94a45.13,45.13,0,0,1,23.61,6.29,47.07,47.07,0,0,1,16.72,16.89,46.06,46.06,0,0,1,6.2,23.69,45.49,45.49,0,0,1-6.29,23.7,46.36,46.36,0,0,1-17.06,16.8,47.24,47.24,0,0,1-24,6.21A47.72,47.72,0,0,1,264,166a46.12,46.12,0,0,1-11-4.49v40Zm47.22-57.56a24.45,24.45,0,0,0,12.23-3,23.1,23.1,0,0,0,8.53-8.27A23.44,23.44,0,0,0,293,109a23,23,0,0,0-8.61-8.27,24.6,24.6,0,0,0-12.15-3,30.17,30.17,0,0,0-10.69,1.81,25.23,25.23,0,0,0-8.61,5.43v31.88a26.86,26.86,0,0,0,8.61,5.17A29.77,29.77,0,0,0,272.22,143.91Z"/><path d="M344,66.7a15.3,15.3,0,0,1-15.34-15.34,15.34,15.34,0,1,1,26.2,10.86A14.79,14.79,0,0,1,344,66.7Zm-14,99.61V75.14H358v91.17Z"/><path d="M359.67,166.31l34.64-46.19-34.12-45h32.4l17.92,24.48,17.75-24.48h31.2l-33.61,44.64,35.5,46.53H429l-19.13-26-18.95,26Z"/><path d="M502.93,168a50.88,50.88,0,0,1-25.24-6.29,47.79,47.79,0,0,1-17.84-17,44.89,44.89,0,0,1-6.55-24,46.37,46.37,0,0,1,23.44-40.93,47.29,47.29,0,0,1,24.13-6.29,43.93,43.93,0,0,1,23.78,6.47,45.49,45.49,0,0,1,16.28,17.66,53.88,53.88,0,0,1,6,25.68v6.89h-65a25.34,25.34,0,0,0,5.08,7.58,22.1,22.1,0,0,0,7.67,5.09,25.68,25.68,0,0,0,9.65,1.81A28.44,28.44,0,0,0,514.65,143a22.63,22.63,0,0,0,7.93-5.09L541,154.25a58.65,58.65,0,0,1-17.67,10.51A59.76,59.76,0,0,1,502.93,168Zm-21.54-57.21h38.09a20.31,20.31,0,0,0-4.23-7.67,20.73,20.73,0,0,0-6.63-5,19.07,19.07,0,0,0-8.27-1.81,20.2,20.2,0,0,0-8.45,1.73,18.1,18.1,0,0,0-6.46,4.91A21.58,21.58,0,0,0,481.39,110.82Z"/><path d="M554,166.31V45.68l27.92-4.31V166.31Z"/><path class="cls-1" d="M593.66,166.31V45.68l27.92-4.31V81.52a40.72,40.72,0,0,1,24.13-7.58,45.13,45.13,0,0,1,23.61,6.29A47,47,0,0,1,686,97.12a48,48,0,0,1-.08,47.39,46.44,46.44,0,0,1-17.06,16.8,49,49,0,0,1-36.45,4.57,43.89,43.89,0,0,1-11.2-4.74v5.17Zm47.22-22.4a24.46,24.46,0,0,0,12.24-3,23.17,23.17,0,0,0,8.53-8.27,23.44,23.44,0,0,0,0-23.61,23,23,0,0,0-8.62-8.27,24.6,24.6,0,0,0-12.15-3,30.11,30.11,0,0,0-10.68,1.81,25.27,25.27,0,0,0-8.62,5.43v31.88A26.8,26.8,0,0,0,630.2,142,29.71,29.71,0,0,0,640.88,143.91Z"/><path class="cls-1" d="M743.83,168a50.44,50.44,0,0,1-25.16-6.29,48,48,0,0,1-17.75-17,45,45,0,0,1-6.55-24,45.43,45.43,0,0,1,6.55-24,47.83,47.83,0,0,1,17.75-17.06,53.46,53.46,0,0,1,50.32,0,47.75,47.75,0,0,1,17.75,17.06,45.34,45.34,0,0,1,6.55,24,44.89,44.89,0,0,1-6.55,24,47.91,47.91,0,0,1-17.75,17A50.39,50.39,0,0,1,743.83,168Zm0-24.12a21.15,21.15,0,0,0,11.38-3.11,22.64,22.64,0,0,0,7.93-8.35,23.54,23.54,0,0,0,2.93-11.64,23.85,23.85,0,0,0-2.93-11.8,22.51,22.51,0,0,0-8-8.36,22.09,22.09,0,0,0-22.57,0,22.43,22.43,0,0,0-8,8.36,23.85,23.85,0,0,0-2.93,11.8,23.54,23.54,0,0,0,2.93,11.64,22.33,22.33,0,0,0,8,8.35A21.2,21.2,0,0,0,743.83,143.91Z"/><path class="cls-1" d="M844.79,168a50.45,50.45,0,0,1-25.17-6.29,48,48,0,0,1-17.75-17,45,45,0,0,1-6.55-24,45.43,45.43,0,0,1,6.55-24,47.83,47.83,0,0,1,17.75-17.06,53.49,53.49,0,0,1,50.33,0A47.9,47.9,0,0,1,887.7,96.77a45.43,45.43,0,0,1,6.54,24,45,45,0,0,1-6.54,24,48.06,48.06,0,0,1-17.75,17A50.44,50.44,0,0,1,844.79,168Zm0-24.12a21.14,21.14,0,0,0,11.37-3.11,22.64,22.64,0,0,0,7.93-8.35A23.54,23.54,0,0,0,867,120.81a23.85,23.85,0,0,0-2.93-11.8,22.51,22.51,0,0,0-8-8.36,22.09,22.09,0,0,0-22.57,0,22.51,22.51,0,0,0-8,8.36,23.85,23.85,0,0,0-2.93,11.8,23.54,23.54,0,0,0,2.93,11.64,22.4,22.4,0,0,0,8,8.35A21.24,21.24,0,0,0,844.79,143.91Z"/><path class="cls-1" d="M936.54,168a90.61,90.61,0,0,1-24-3,58.68,58.68,0,0,1-19.13-8.88l13.27-18.78a79.85,79.85,0,0,0,15.68,7.49,44.23,44.23,0,0,0,14,2.33c4.6,0,8.24-.66,10.95-2s4.05-3.07,4.05-5.26a5,5,0,0,0-2.24-4.22q-2.25-1.64-7.07-2.33L924,130.64q-13.61-2.07-20.76-9T896,103.41a26.61,26.61,0,0,1,4.74-15.94A29.7,29.7,0,0,1,914.3,77.3q8.79-3.52,21-3.53a73.36,73.36,0,0,1,19.82,2.75,65.57,65.57,0,0,1,18.26,8.28l-13.26,17.92A65.22,65.22,0,0,0,946,96.43a47.35,47.35,0,0,0-13.44-2A17.77,17.77,0,0,0,924,96.26q-3.27,1.8-3.27,4.74a5.06,5.06,0,0,0,2.41,4.39q2.42,1.64,8.28,2.5l18.09,2.76q13.44,1.89,20.77,8.87a23.35,23.35,0,0,1,7.32,17.66A25.17,25.17,0,0,1,972.21,153,36.46,36.46,0,0,1,957.65,164,52.06,52.06,0,0,1,936.54,168Z"/><path class="cls-1" d="M1027.23,167.52q-16.37,0-24.73-7.33t-8.36-21.63V98.41H975.7V75.14h18.44V51.71l27.92-6V75.14h25.51V98.41h-25.51v34.64c0,4,.89,6.87,2.67,8.53s4.91,2.5,9.4,2.5a41.69,41.69,0,0,0,6.28-.43,47,47,0,0,0,6.3-1.47v22.58a58.39,58.39,0,0,1-9.65,2A76.87,76.87,0,0,1,1027.23,167.52Z"/><path d="M131,92.87a5,5,0,0,0-5,4.48c-2.28,19-18.88,33.66-38.55,33.66H70a5,5,0,0,0-5,5v40a5,5,0,0,0,5,5H87c48.8,0,89.29-44.07,89.29-80.66,0,0,0-1.11,0-2.48a5,5,0,0,0-5-5Z"/><path d="M88.14,9.74a5,5,0,0,0-5-5c-1.72,0-.06,0-.23,0C47.27,4.73,0,45.59,0,94V225.88c.64,0,1.27,0,1.91,0,27-.92,48.09-23.63,48.09-50.62V93.55C50,73.88,64.64,57.28,83.66,55a5,5,0,0,0,4.48-5V9.74Z"/><path class="cls-1" d="M103.27,5V52.75A5,5,0,0,0,106,57.21,42.23,42.23,0,0,1,123.82,75a5.07,5.07,0,0,0,4.47,2.75H176a5,5,0,0,0,4.87-6.18A97.31,97.31,0,0,0,109.45.14,5,5,0,0,0,103.27,5Z"/></g></g></svg>